<svg width="167" height="74" viewBox="0 0 167 74" fill="none" xmlns="http://www.w3.org/2000/svg">
<path d="M4.47656 50.0568H28.6136V60H35.9467V50.0568H42.6832V43.544H35.9467V9.09091H26.4759L4.47656 43.8423V50.0568ZM28.6634 43.544H12.5305V43.1463L28.2656 18.2386H28.6634V43.544ZM124.379 50.0568H148.516V60H155.849V50.0568H162.586V43.544H155.849V9.09091H146.378L124.379 43.8423V50.0568ZM148.566 43.544H132.433V43.1463L148.168 18.2386H148.566V43.544Z" fill="#6C5BB9"/>
<g clip-path="url(#clip0)">
<path fill-rule="evenodd" clip-rule="evenodd" d="M82.8387 5.48851C73.3003 6.26295 64.8777 12.0109 60.6798 20.6107C56.4818 29.2105 57.131 39.3869 62.3878 47.3835C62.5576 47.6355 62.5926 47.9548 62.4813 48.2376L58.7436 57.5743C58.6046 57.9215 58.686 58.318 58.9503 58.5823C59.2147 58.8467 59.6112 58.928 59.9583 58.7891L69.2951 55.0514C69.5778 54.9401 69.8972 54.9751 70.1492 55.1448C80.055 61.6539 93.0416 60.9697 102.209 53.4558C111.376 45.9418 114.595 33.3421 110.157 22.3514C105.719 11.3607 94.6528 4.52991 82.8387 5.48851V5.48851Z" fill="#E8EDFC"/>
<path fill-rule="evenodd" clip-rule="evenodd" d="M83.6423 5.44733C97.8556 6.20177 109.063 17.8238 109.301 32.0552C109.538 46.2865 98.7252 58.2763 84.545 59.5048C84.2394 59.53 83.9404 59.5263 83.6367 59.5413C84.8733 59.6126 86.1133 59.6004 87.3483 59.5048C102.029 58.183 112.961 45.3683 111.953 30.6622C110.945 15.9562 98.3666 4.75327 83.6423 5.44733V5.44733Z" fill="#CAD9FC"/>
<path fill-rule="evenodd" clip-rule="evenodd" d="M79.3841 39.2082L83.303 49.2262C83.5828 49.9414 84.2715 50.4126 85.0395 50.4143C85.8074 50.4159 86.4982 49.9477 86.781 49.2337L97.3166 22.6427C97.5945 21.9485 97.4318 21.1555 96.9031 20.6268C96.3744 20.098 95.5813 19.9354 94.8871 20.2132L68.3064 30.7517C67.5925 31.0345 67.1242 31.7253 67.1259 32.4932C67.1275 33.2611 67.5988 33.9499 68.3139 34.2296L78.3291 38.1486C78.8129 38.3396 79.1952 38.7236 79.3841 39.2082V39.2082Z" fill="#C6D8FB"/>
<path fill-rule="evenodd" clip-rule="evenodd" d="M94.89 20.216L94.0089 20.5655C94.6038 21.0788 94.8066 21.9136 94.5135 22.6427L83.9778 49.2309C83.8978 49.4305 83.7844 49.6151 83.6423 49.7766C84.072 50.2641 84.7242 50.4934 85.3644 50.382C86.0047 50.2707 86.5411 49.8348 86.7811 49.2309L97.3167 22.6427C97.5921 21.9495 97.4288 21.1589 96.9013 20.6314C96.3739 20.104 95.5833 19.9407 94.89 20.216V20.216Z" fill="#A4C3FD"/>
<path fill-rule="evenodd" clip-rule="evenodd" d="M58.0278 30.1843C57.5043 36.2446 59.0405 42.3043 62.3878 47.3834C62.5576 47.6353 62.5926 47.9547 62.4813 48.2374L58.7436 57.5742C58.6046 57.9213 58.686 58.3178 58.9503 58.5822C59.2147 58.8466 59.6112 58.9279 59.9583 58.789L61.516 58.1666C61.4601 57.9715 61.4713 57.7632 61.5478 57.5752L65.2855 48.2384C65.3968 47.9556 65.3618 47.6363 65.192 47.3843C59.9348 39.3878 59.2852 29.2113 63.483 20.6112C67.6808 12.0112 76.1035 6.26293 85.642 5.48837C85.8849 5.46875 86.1251 5.46221 86.3671 5.45099C85.4691 5.40801 84.5618 5.40147 83.6432 5.45099C83.375 5.46408 83.1087 5.47062 82.8396 5.49211C69.6664 6.59737 59.1967 17.0166 58.0278 30.1843V30.1843Z" fill="white"/>
<path fill-rule="evenodd" clip-rule="evenodd" d="M58.8193 22.5876L60.5658 23.253C59.7338 25.5109 59.1949 27.8661 58.9623 30.2612L57.1 30.107C57.3471 27.537 57.925 25.0096 58.8193 22.5876V22.5876Z" fill="white"/>
<path fill-rule="evenodd" clip-rule="evenodd" d="M58.6446 27.425C58.1285 27.4276 57.708 27.0113 57.7055 26.4953C57.7029 25.9792 58.1191 25.5587 58.6352 25.5562H58.6446C59.1606 25.5562 59.579 25.9745 59.579 26.4906C59.579 27.0067 59.1606 27.425 58.6446 27.425Z" fill="#6C5BB9"/>
<path fill-rule="evenodd" clip-rule="evenodd" d="M57.099 30.1059C56.5467 36.3741 58.1375 42.6442 61.6114 47.8908L57.8737 57.2267C57.5958 57.9209 57.7585 58.7139 58.2872 59.2426C58.816 59.7714 59.609 59.9341 60.3032 59.6562L69.6316 55.9241C74.1918 58.9419 79.542 60.5452 85.0103 60.5327C85.8108 60.5327 86.6163 60.4994 87.4268 60.4327C102.855 59.1454 114.319 45.5944 113.032 30.1657C111.745 14.737 98.1936 3.27322 82.7649 4.56055C80.1373 4.79821 77.5534 5.38684 75.0821 6.31073C72.6183 7.25261 70.3023 8.54278 68.2047 10.1419C66.088 11.7151 64.2141 13.5909 62.643 15.7092C61.0548 17.8147 59.7678 20.1313 58.8193 22.5922C58.728 22.8283 58.737 23.0914 58.8442 23.3207C58.9515 23.5501 59.1477 23.7257 59.3874 23.8069C59.8665 23.9709 60.389 23.7236 60.5658 23.2491C61.4519 20.9525 62.6532 18.7904 64.1353 16.8249C65.6032 14.8464 67.3551 13.0954 69.3344 11.6285C71.2918 10.1356 73.4534 8.93127 75.753 8.0525C78.0559 7.1931 80.4629 6.64413 82.9107 6.42006C94.3173 5.49361 105.002 12.0879 109.288 22.6992C113.575 33.3104 110.467 45.4759 101.617 52.7315C92.7666 59.9871 80.228 60.649 70.6632 54.3655C70.1544 54.0302 69.5142 53.9639 68.9476 54.1879L59.6117 57.9256L63.3494 48.5879C63.5728 48.0218 63.5065 47.3824 63.1719 46.8742C59.9297 41.9707 58.4457 36.1129 58.9623 30.2573C59.0048 29.743 58.6225 29.2916 58.1082 29.249C57.86 29.2252 57.6127 29.3029 57.4226 29.4643C57.2325 29.6257 57.1158 29.8571 57.099 30.1059V30.1059Z" fill="#6C5BB9"/>
<path fill-rule="evenodd" clip-rule="evenodd" d="M96.5552 52.8498C96.8277 53.2879 97.4037 53.4222 97.8419 53.1498C100.624 51.4251 103.027 49.1542 104.907 46.4743C105.204 46.0519 105.102 45.4689 104.68 45.1721C104.257 44.8754 103.674 44.9773 103.377 45.3997C101.643 47.8754 99.424 49.9735 96.8551 51.5669C96.4194 51.8393 96.2854 52.4125 96.5552 52.8498V52.8498Z" fill="#6C5BB9"/>
<path fill-rule="evenodd" clip-rule="evenodd" d="M71.0585 12.6255C68.3782 14.505 66.1069 16.9085 64.382 19.6907C64.2057 19.9745 64.1942 20.3307 64.3518 20.6252C64.5094 20.9198 64.8122 21.1079 65.1461 21.1186C65.48 21.1294 65.7942 20.9612 65.9705 20.6775C67.5639 18.1086 69.6619 15.8897 72.1377 14.1552C72.5601 13.8584 72.662 13.2754 72.3652 12.853C72.0685 12.4306 71.4855 12.3288 71.0631 12.6255H71.0585Z" fill="#6C5BB9"/>
<path d="M94.5461 19.3478L67.958 29.8834C66.887 30.3074 66.1844 31.3435 66.1867 32.4954C66.1889 33.6472 66.8956 34.6805 67.9683 35.1003L77.9844 39.0193C78.2265 39.1152 78.4183 39.307 78.5142 39.5491L82.4332 49.5652C82.8493 50.6408 83.8851 51.3489 85.0384 51.3462H85.044C86.1948 51.3501 87.2298 50.6463 87.6491 49.5746L98.1848 22.9864C98.5965 21.947 98.3513 20.7623 97.5608 19.9718C96.7702 19.1812 95.5855 18.936 94.5461 19.3478V19.3478ZM96.4477 22.2987L85.912 48.8868C85.7759 49.2472 85.4281 49.4831 85.043 49.4765C84.652 49.4989 84.2949 49.2553 84.1731 48.8831L80.2541 38.867C79.968 38.1399 79.3926 37.5645 78.6656 37.2785L68.6495 33.3595C68.2922 33.2188 68.0573 32.874 68.0573 32.49C68.0573 32.106 68.2922 31.7611 68.6495 31.6205L95.2339 21.0849C95.5799 20.9406 95.9791 21.0233 96.2393 21.2932C96.5066 21.5549 96.589 21.9523 96.4477 22.2987V22.2987Z" fill="#6C5BB9"/>
</g>
<defs>
<clipPath id="clip0">
<rect width="57" height="57" fill="white" transform="translate(57 4)"/>
</clipPath>
</defs>
</svg>
