<svg width="35" height="35" viewBox="0 0 35 35" fill="none" xmlns="http://www.w3.org/2000/svg">
<path d="M31.7101 7.82314L30.9373 5.50667C30.6431 4.6244 29.8204 4.0316 28.8906 4.0316H22.3956V1.917C22.3956 0.8601 21.5363 0 20.4797 0H14.5319C13.4755 0 12.616 0.8601 12.616 1.917V4.0316H6.12128C5.19122 4.0316 4.36851 4.6244 4.07424 5.50667L3.30146 7.82314C3.12549 8.35052 3.21468 8.93452 3.53965 9.38553C3.86462 9.83654 4.3904 10.106 4.94636 10.106H5.75412L7.532 32.0907C7.66418 33.722 9.04845 35 10.684 35H24.6883C26.3236 35 27.7082 33.722 27.8401 32.0905L29.618 10.106H30.0652C30.6212 10.106 31.147 9.83654 31.4719 9.3858C31.7969 8.93478 31.8861 8.35052 31.7101 7.82314ZM14.6667 2.05078H20.3448V4.0316H14.6667V2.05078ZM25.796 31.9252C25.7495 32.4995 25.263 32.9492 24.6883 32.9492H10.684C10.1094 32.9492 9.62283 32.4995 9.57637 31.9252L7.81158 10.106H27.5605L25.796 31.9252ZM5.38615 8.05519L6.01981 6.15555C6.03423 6.11176 6.07509 6.08238 6.12128 6.08238H28.8906C28.9368 6.08238 28.9774 6.11176 28.992 6.15555L29.6257 8.05519H5.38615Z" fill="#6C5BB9"/>
<path d="M22.5255 31.8525C22.5437 31.8536 22.5616 31.8539 22.5797 31.8539C23.1215 31.8539 23.5744 31.4293 23.6027 30.8819L24.5656 12.3976C24.595 11.832 24.1603 11.3495 23.595 11.3201C23.0281 11.29 22.5472 11.7252 22.5175 12.2908L21.5549 30.7751C21.5255 31.3406 21.96 31.8231 22.5255 31.8525Z" fill="#6C5BB9"/>
<path d="M11.4547 30.8843C11.4846 31.4309 11.9369 31.8539 12.4776 31.8539C12.4963 31.8539 12.5156 31.8533 12.5345 31.8523C13.0998 31.8215 13.5332 31.3382 13.5025 30.7727L12.4939 12.2884C12.4632 11.7228 11.9799 11.2894 11.4143 11.3204C10.849 11.3511 10.4157 11.8344 10.4464 12.4L11.4547 30.8843Z" fill="#6C5BB9"/>
<path d="M17.5173 31.8539C18.0837 31.8539 18.5427 31.3948 18.5427 30.8285V12.3442C18.5427 11.7778 18.0837 11.3188 17.5173 11.3188C16.951 11.3188 16.4919 11.7778 16.4919 12.3442V30.8285C16.4919 31.3948 16.951 31.8539 17.5173 31.8539Z" fill="#6C5BB9"/>
</svg>
