<svg width="151" height="59" viewBox="0 0 151 59" fill="none" xmlns="http://www.w3.org/2000/svg">
<path d="M25.116 52.696C35.3575 52.696 42.6657 45.4624 42.6409 35.544C42.6657 25.7003 35.805 18.5412 26.5329 18.5412C22.7545 18.5412 19.2496 19.983 17.2609 21.9219H16.9626L18.5784 7.67827H40.18V1.09091H12.1899L9.33123 26.7443L16.366 27.7884C18.2801 26.0732 21.7105 24.9048 24.7929 24.9048C30.8334 24.9545 35.2084 29.4787 35.2084 35.6932C35.2084 41.8082 30.9577 46.233 25.116 46.233C20.1942 46.233 16.2915 43.1009 15.8937 38.7259H8.43635C8.73464 46.8295 15.7694 52.696 25.116 52.696ZM125.02 52.8452C136.778 52.8452 143.664 43.25 143.664 26.5703C143.664 10.0149 136.679 0.394884 125.02 0.394884C113.337 0.394884 106.377 9.99006 106.352 26.5703C106.352 43.2251 113.237 52.8203 125.02 52.8452ZM125.02 46.2081C118.134 46.2081 113.983 39.2976 113.983 26.5703C114.008 13.8928 118.159 6.90767 125.02 6.90767C131.856 6.90767 136.032 13.8928 136.032 26.5703C136.032 39.2976 131.881 46.2081 125.02 46.2081Z" fill="#6C5BB9"/>
<path d="M74 1C59.6636 1 48 12.6636 48 27C48 41.3364 59.6636 53 74 53C88.3364 53 100 41.3364 100 27C100 12.6636 88.3366 1 74 1ZM74 48.2727C62.2702 48.2727 52.7273 38.7299 52.7273 27C52.7273 15.2701 62.2702 5.72727 74 5.72727C85.7298 5.72727 95.2727 15.2702 95.2727 27C95.2727 38.7298 85.7298 48.2727 74 48.2727Z" fill="#6C5BB9"/>
<path d="M73.9998 29.3359C73.9997 29.3359 74 29.3359 73.9998 29.3359C70.3381 29.3359 66.8952 30.762 64.3061 33.3513C63.383 34.2742 63.383 35.7709 64.3061 36.694C64.7676 37.1555 65.3726 37.3863 65.9775 37.3863C66.5824 37.3863 67.1874 37.1555 67.6487 36.694C69.3452 34.9975 71.6007 34.0634 73.9998 34.0634C76.3989 34.0634 78.6545 34.9977 80.3509 36.694C81.2738 37.6169 82.7705 37.6169 83.6936 36.694C84.6166 35.771 84.6166 34.2744 83.6936 33.3513C81.1043 30.762 77.6617 29.3359 73.9998 29.3359Z" fill="#6C5BB9"/>
<path d="M66.1433 24.1858C66.7311 23.5996 67.0667 22.7865 67.0667 21.9577C67.0667 21.1288 66.7311 20.3157 66.1433 19.7294C65.5571 19.1434 64.744 18.8062 63.9152 18.8062C63.0848 18.8062 62.2732 19.1434 61.6871 19.7294C61.1009 20.3157 60.7637 21.1288 60.7637 21.9577C60.7637 22.7865 61.1009 23.5996 61.6871 24.1858C62.2732 24.772 63.0863 25.1092 63.9152 25.1092C64.744 25.1092 65.5571 24.772 66.1433 24.1858Z" fill="#6C5BB9"/>
<path d="M84.0849 18.8062C83.2544 18.8062 82.4429 19.1434 81.8567 19.7294C81.269 20.3157 80.9333 21.1288 80.9333 21.9577C80.9333 22.7865 81.269 23.5996 81.8567 24.1858C82.4429 24.772 83.256 25.1092 84.0849 25.1092C84.9137 25.1092 85.7268 24.7718 86.313 24.1858C86.9007 23.5996 87.2364 22.7865 87.2364 21.9577C87.2364 21.1288 86.9007 20.3157 86.313 19.7294C85.7268 19.1434 84.9137 18.8062 84.0849 18.8062Z" fill="#6C5BB9"/>
</svg>
