<svg width="30" height="30" viewBox="0 0 30 30" fill="none" xmlns="http://www.w3.org/2000/svg">
<path d="M15 0C6.7285 0 0 6.7285 0 15C0 23.2715 6.7285 30 15 30C23.2715 30 30 23.2703 30 15C30 6.72967 23.2715 0 15 0ZM15 27.6762C8.01123 27.6762 2.32377 21.9899 2.32377 15C2.32377 8.01006 8.01123 2.32377 15 2.32377C21.9888 2.32377 27.6762 8.01006 27.6762 15C27.6762 21.9899 21.9899 27.6762 15 27.6762Z" fill="#6C5BB9"/>
<path d="M20.8094 13.7335H16.1619V9.08599C16.1619 8.44462 15.6425 7.92407 15 7.92407C14.3575 7.92407 13.8381 8.44462 13.8381 9.08599V13.7335H9.19054C8.548 13.7335 8.02863 14.2541 8.02863 14.8954C8.02863 15.5368 8.548 16.0574 9.19054 16.0574H13.8381V20.7049C13.8381 21.3463 14.3575 21.8668 15 21.8668C15.6425 21.8668 16.1619 21.3463 16.1619 20.7049V16.0574H20.8094C21.452 16.0574 21.9714 15.5368 21.9714 14.8954C21.9714 14.2541 21.452 13.7335 20.8094 13.7335Z" fill="#6C5BB9"/>
</svg>
