<svg width="30" height="30" viewBox="0 0 30 30" fill="none" xmlns="http://www.w3.org/2000/svg">
<path d="M15 0C6.7099 0 0 6.70876 0 15C0 17.631 0.686188 20.2007 1.98921 22.467L0.0565338 28.4688C-0.0782776 28.8872 0.0325013 29.3459 0.343323 29.6567C0.651169 29.9645 1.1087 30.0794 1.53122 29.9435L7.53296 28.0108C9.79935 29.3138 12.369 30 15 30C23.2901 30 30 23.2912 30 15C30 6.7099 23.2912 0 15 0ZM15 27.6562C12.6235 27.6562 10.307 26.9932 8.30086 25.7387C8.01224 25.5583 7.65381 25.5096 7.32033 25.6169L2.98782 27.0122L4.38309 22.6797C4.48883 22.351 4.4442 21.9921 4.26109 21.6991C3.00682 19.693 2.34375 17.3765 2.34375 15C2.34375 8.02139 8.02139 2.34375 15 2.34375C21.9786 2.34375 27.6562 8.02139 27.6562 15C27.6562 21.9786 21.9786 27.6562 15 27.6562ZM16.4648 15C16.4648 15.8089 15.8091 16.4648 15 16.4648C14.1909 16.4648 13.5352 15.8089 13.5352 15C13.5352 14.1909 14.1909 13.5352 15 13.5352C15.8091 13.5352 16.4648 14.1909 16.4648 15ZM22.3242 15C22.3242 15.8089 21.6685 16.4648 20.8594 16.4648C20.0503 16.4648 19.3945 15.8089 19.3945 15C19.3945 14.1909 20.0503 13.5352 20.8594 13.5352C21.6685 13.5352 22.3242 14.1909 22.3242 15ZM10.6055 15C10.6055 15.8089 9.94972 16.4648 9.14062 16.4648C8.33176 16.4648 7.67578 15.8089 7.67578 15C7.67578 14.1909 8.33176 13.5352 9.14062 13.5352C9.94972 13.5352 10.6055 14.1909 10.6055 15Z" fill="#6C5BB9"/>
</svg>
