<svg width="31" height="31" viewBox="0 0 31 31" fill="none" xmlns="http://www.w3.org/2000/svg">
<path fill-rule="evenodd" clip-rule="evenodd" d="M17.9683 17.6914C15.7488 19.9109 12.1503 19.9109 9.93086 17.6914C7.71138 15.4719 7.71138 11.8734 9.93086 9.65396C12.1503 7.43448 15.7488 7.43448 17.9683 9.65396C20.1878 11.8734 20.1878 15.4719 17.9683 17.6914ZM18.6509 19.835C15.6126 22.1591 11.2484 21.9316 8.46951 19.1528C5.44294 16.1262 5.44295 11.2192 8.46951 8.1926C11.4961 5.16604 16.4031 5.16604 19.4297 8.1926C22.2084 10.9714 22.4359 15.3353 20.1122 18.3736L25.6406 23.902L24.1792 25.3633L18.6509 19.835Z" fill="#999999"/>
</svg>
