<svg width="64" height="64" viewBox="0 0 64 64" fill="none" xmlns="http://www.w3.org/2000/svg">
<path d="M8.88987 19.4509C9.20974 19.4509 9.52974 19.3289 9.77374 19.0847L9.77724 19.0812C10.2654 18.5931 10.2636 17.8034 9.77549 17.3152C9.28736 16.8272 8.49424 16.829 8.00586 17.317C7.51774 17.8051 7.51774 18.5966 8.00586 19.0849C8.24999 19.3289 8.56999 19.4509 8.88987 19.4509V19.4509Z" fill="#6C5BB9"/>
<path d="M63.9994 14.2041C63.9994 6.372 57.6277 0 49.7957 0C43.1682 0 37.5868 4.563 36.0267 10.7122C33.2414 9.77862 30.3287 9.3045 27.3463 9.3045C21.9101 9.3045 16.6574 10.8968 12.1561 13.9093C11.5823 14.2933 11.4286 15.0696 11.8124 15.6434C12.0536 16.0036 12.4492 16.1982 12.8524 16.1982C13.0914 16.1982 13.3331 16.1299 13.5466 15.987C17.6351 13.2509 22.4069 11.8046 27.3463 11.8046C30.1982 11.8046 32.9788 12.281 35.6267 13.2188C35.6043 13.5444 35.5919 13.8729 35.5919 14.2041C35.5919 22.0344 41.9637 28.4046 49.7957 28.4046C50.1262 28.4046 50.4539 28.3924 50.7789 28.37C51.7181 31.0263 52.1952 33.807 52.1952 36.6505C52.1952 39.9638 51.5412 43.1264 50.3589 46.0192C49.6641 43.749 47.9868 41.8624 45.8023 40.9113C46.5368 39.7521 46.9641 38.38 46.9641 36.9092C46.9641 32.7755 43.5994 29.4125 39.4639 29.4125C38.2238 29.4125 37.0267 29.7136 35.9581 30.2794C34.8014 26.626 31.3787 23.9701 27.3464 23.9701C23.3143 23.9701 19.8917 26.6258 18.7349 30.2789C17.6681 29.7134 16.4709 29.4125 15.2288 29.4125C11.0952 29.4125 7.73231 32.7755 7.73231 36.9092C7.73231 38.3801 8.15931 39.7522 8.89344 40.9114C6.70856 41.8625 5.03131 43.7499 4.33681 46.021C3.15469 43.1277 2.50119 39.9642 2.50119 36.6506C2.50119 31.7511 3.92644 27.0105 6.62294 22.9414C7.00431 22.3659 6.84694 21.5903 6.27144 21.2089C5.69594 20.8275 4.92031 20.985 4.53894 21.5604C1.57031 26.0401 0.00119019 31.2583 0.00119019 36.6505C0.00119019 43.9558 2.84531 50.8238 8.00969 55.9893C13.1744 61.1551 20.0417 64 27.3464 64C34.6513 64 41.5192 61.1551 46.6848 55.9894C51.8504 50.8236 54.6952 43.9556 54.6952 36.6506C54.6952 33.676 54.2204 30.7633 53.2853 27.9705C59.4356 26.4114 63.9994 20.8309 63.9994 14.2041V14.2041ZM27.3464 26.47C30.9476 26.47 33.8772 29.3981 33.8772 32.9974C33.8772 36.5986 30.9474 39.5284 27.3464 39.5284C23.7454 39.5284 20.8157 36.5986 20.8157 32.9974C20.8156 29.3983 23.7453 26.47 27.3464 26.47V26.47ZM13.6529 47.2484V57.3742C10.7967 55.48 8.35281 53.0121 6.48719 50.1353V48.3537C6.48719 45.782 8.28194 43.5299 10.7397 42.9121C11.7088 43.6394 12.8593 44.1363 14.1096 44.3244C13.8138 45.2535 13.6529 46.2365 13.6529 47.2484ZM15.2288 41.9094C12.4737 41.9094 10.2323 39.6663 10.2323 36.9091C10.2323 34.1539 12.4738 31.9124 15.2288 31.9124C16.3639 31.9124 17.4418 32.2885 18.3161 32.9795C18.3161 32.9855 18.3156 32.9914 18.3156 32.9974C18.3156 34.8986 18.9076 36.6636 19.9149 38.1204C17.9928 38.8729 16.3709 40.2162 15.2599 41.9089C15.2494 41.909 15.2394 41.9094 15.2288 41.9094V41.9094ZM38.5399 58.8317C35.1741 60.5374 31.3707 61.5 27.3464 61.5C23.3221 61.5 19.5187 60.537 16.1529 58.831V47.2484C16.1529 43.8551 18.5583 40.8901 21.8287 40.1391C23.3559 41.3219 25.2697 42.0284 27.3464 42.0284C29.4232 42.0284 31.3371 41.3219 32.8643 40.139C36.1346 40.8895 38.5399 43.8546 38.5399 47.2482V58.8317ZM39.4306 41.9085C38.3194 40.2169 36.6994 38.8725 34.7778 38.1204C35.7851 36.6636 36.3771 34.8988 36.3771 32.9975C36.3771 32.9911 36.3766 32.9849 36.3766 32.9784C37.2543 32.2881 38.3322 31.9124 39.4638 31.9124C42.2209 31.9124 44.4639 34.1539 44.4639 36.9091C44.4639 39.6663 42.2209 41.9094 39.4638 41.9094C39.4524 41.9094 39.4419 41.9085 39.4306 41.9085V41.9085ZM48.2092 50.1297C46.3424 53.0086 43.8986 55.4802 41.0399 57.3755V47.2484C41.0399 46.2366 40.8804 45.2533 40.5847 44.3244C41.8353 44.1361 42.9861 43.6392 43.9554 42.912C46.4139 43.5296 48.2092 45.7821 48.2092 48.3537V50.1297ZM49.7957 25.9046C43.3422 25.9046 38.0919 20.6558 38.0919 14.2041C38.0919 7.7505 43.3422 2.5 49.7957 2.5C56.2492 2.5 61.4994 7.75038 61.4994 14.2041C61.4994 20.6558 56.2492 25.9046 49.7957 25.9046Z" fill="#6C5BB9"/>
<path d="M55.4361 12.9541H51.0455V8.55975C51.0455 7.86938 50.4859 7.30975 49.7955 7.30975C49.1051 7.30975 48.5455 7.86938 48.5455 8.55975V12.9541H44.1512C43.4609 12.9541 42.9012 13.5138 42.9012 14.2041C42.9012 14.8945 43.4609 15.4541 44.1512 15.4541H48.5455V19.8449C48.5455 20.5353 49.1051 21.0949 49.7955 21.0949C50.4859 21.0949 51.0455 20.5353 51.0455 19.8449V15.4541H55.4361C56.1265 15.4541 56.6861 14.8945 56.6861 14.2041C56.6861 13.5138 56.1265 12.9541 55.4361 12.9541V12.9541Z" fill="#6C5BB9"/>
</svg>
